# xmcd
#
# Track frame offsets:
# 150
# 13354
# 28408
# 48991
# 63556
#
# Disc length: 1018 seconds
#
#
# Revision: 0
# Processed by: cddbd v1.5PL3 Copyright (c) Steve Scherf et al.
# Submitted via: FreeRIP 2.70 
#
DISCID=4503f805
DTITLE=Emmanuelle Julien - Huit Ca Suffit
DYEAR=2003
DGENRE=Blues
TTITLE0=Land Of A Thousand Dances
TTITLE1=Jungle Boogie
TTITLE2=It's A Man's Man's World
TTITLE3=Gimme Some Lovin'
TTITLE4=What Do I have To Do To Prove My Love To You
EXTD=Bluesfestradio.com
EXTT0=
EXTT1=
EXTT2=
EXTT3=
EXTT4=
PLAYORDER=
